<?xml version="1.0" standalone="no"?>
<!DOCTYPE svg PUBLIC "-//W3C//DTD SVG 20010904//EN"
 "http://www.w3.org/TR/2001/REC-SVG-20010904/DTD/svg10.dtd">
<svg version="1.0" xmlns="http://www.w3.org/2000/svg"
 width="1264.000000pt" height="1264.000000pt" viewBox="0 0 1264.000000 1264.000000"
 preserveAspectRatio="xMidYMid meet">

<g transform="translate(0.000000,1264.000000) scale(0.100000,-0.100000)"
fill="#000000" stroke="none">
<path d="M2194 12350 c-90 -23 -194 -75 -262 -131 -106 -86 -196 -230 -227
-360 -19 -82 -19 -246 0 -327 32 -133 131 -287 239 -369 65 -49 174 -104 244
-122 l42 -12 0 -274 0 -275 -335 0 -335 0 0 -3598 0 -3597 88 -24 c197 -53
416 -158 592 -284 115 -82 349 -319 433 -437 77 -109 193 -336 236 -461 59
-173 101 -414 101 -586 l0 -78 3945 -1 3945 0 0 4533 0 4533 -337 2 -338 3 -3
271 -2 271 62 17 c35 10 94 34 133 54 97 50 228 181 278 279 103 198 103 438
0 636 -50 98 -181 229 -278 279 -202 105 -437 105 -638 1 -108 -56 -232 -183
-286 -295 -96 -198 -95 -412 1 -607 78 -158 230 -286 406 -343 l72 -23 0 -272
0 -273 -340 0 -340 0 -2 -827 -3 -827 -790 -443 -790 -443 -3 33 c-3 32 -10
36 -711 420 -389 213 -713 387 -719 387 -7 0 -196 -101 -420 -224 -224 -123
-537 -294 -697 -381 -159 -86 -295 -163 -301 -171 -8 -10 -163 62 -780 364
l-769 378 -3 867 -2 867 -405 0 -405 0 0 274 0 274 83 26 c169 52 311 176 393
341 58 116 78 211 71 335 -15 294 -221 548 -503 620 -100 26 -242 26 -340 0z
m270 -400 c34 -13 68 -35 90 -60 60 -67 71 -96 71 -190 0 -75 -3 -91 -27 -132
-55 -92 -154 -145 -257 -135 -72 6 -127 34 -175 87 -52 57 -66 97 -66 180 0
84 17 131 68 184 79 82 187 106 296 66z m7743 -4 c18 -9 49 -31 69 -49 113
-98 112 -296 -1 -396 -177 -155 -445 -35 -445 199 1 124 72 223 190 261 39 13
151 4 187 -15z m-917 -5141 c0 -877 -2 -1595 -5 -1595 -3 0 -120 63 -261 141
l-255 140 -251 -137 c-176 -97 -255 -135 -264 -128 -15 10 -674 713 -674 719
0 2 27 18 60 37 l60 33 0 752 0 752 33 16 c17 8 372 206 787 439 415 234 758
425 763 425 4 1 7 -717 7 -1594z m-4465 793 c20 -3 20 -13 25 -803 l5 -800
-437 -440 -438 -440 0 105 0 105 -338 185 -337 185 -3 1322 -2 1321 752 -368
c414 -202 762 -370 773 -372z m1961 406 l504 -277 -2 -720 -3 -719 -500 -274
c-275 -151 -506 -274 -512 -274 -7 0 -240 124 -518 276 l-505 276 0 717 0 716
503 277 c276 152 508 277 516 277 7 1 240 -123 517 -275z m-1008 -2503 l494
-270 485 266 c474 260 485 266 503 247 118 -123 660 -708 660 -713 0 -3 -96
-59 -212 -123 l-213 -117 -3 -885 -2 -886 -1788 2 -1787 3 -7 115 c-8 135 -41
273 -93 392 -20 46 -39 88 -42 95 -2 6 40 35 101 68 l106 57 0 416 0 417 611
618 611 617 41 -24 c23 -13 264 -146 535 -295z m-2578 -248 l360 -196 0 -517
0 -517 -359 -197 c-198 -109 -368 -196 -378 -194 -10 2 -177 90 -371 197
l-352 193 0 518 0 518 358 196 c196 107 363 195 370 196 7 0 175 -89 372 -197z
m6025 -503 l400 -219 3 -569 2 -568 -382 -209 c-211 -115 -394 -215 -408 -223
-24 -13 -44 -3 -420 203 -217 119 -401 221 -407 227 -10 8 -13 134 -13 569 0
434 3 561 13 569 18 17 790 439 802 439 6 0 190 -98 410 -219z"/>
</g>
</svg>
